<svg data-v-fde0c5aa="" xmlns="http://www.w3.org/2000/svg" viewBox="0 0 300 300" class="iconLeft"><!----><defs data-v-fde0c5aa=""><!----></defs><rect data-v-fde0c5aa="" fill="#29C785" x="0" y="0" width="300px" height="300px" class="logo-background-square"></rect><defs data-v-fde0c5aa=""><!----></defs><g data-v-fde0c5aa="" id="50db7757-0f46-4913-9539-2b13235aa873" fill="#FFFFFF" transform="matrix(1.8582429083767857,0,0,1.8582429083767857,102.45816561642143,140.72736775871834)"><path d="M6.94 8.86L6.94 10.50L0.85 10.50L0.85-0.42L2.73-0.42L2.73 8.86L6.94 8.86ZM14.38 6.61L14.38 7.46L9.48 7.46L9.48 7.46Q9.58 9.27 11.14 9.27L11.14 9.27L11.14 9.27Q11.84 9.27 12.25 8.93L12.25 8.93L12.25 8.93Q12.66 8.58 12.66 8.12L12.66 8.12L14.38 8.12L14.38 8.18L14.38 8.18Q14.38 9.23 13.52 9.95L13.52 9.95L13.52 9.95Q12.66 10.68 11.13 10.68L11.13 10.68L11.13 10.68Q9.41 10.68 8.53 9.66L8.53 9.66L8.53 9.66Q7.66 8.64 7.66 6.97L7.66 6.97L7.66 6.61L7.66 6.61Q7.66 4.94 8.53 3.92L8.53 3.92L8.53 3.92Q9.39 2.90 11.06 2.90L11.06 2.90L11.06 2.90Q12.70 2.90 13.54 3.92L13.54 3.92L13.54 3.92Q14.38 4.94 14.38 6.61L14.38 6.61ZM11.02 4.31L11.02 4.31L11.02 4.31Q9.59 4.31 9.48 6.12L9.48 6.12L12.54 6.12L12.54 6.12Q12.46 4.31 11.02 4.31ZM21.78 10.50L20.17 10.50L20.03 9.65L20.03 9.65Q19.14 10.68 17.61 10.68L17.61 10.68L17.61 10.68Q16.49 10.68 15.93 10.07L15.93 10.07L15.93 10.07Q15.37 9.45 15.37 8.50L15.37 8.50L15.37 8.36L15.37 8.36Q15.37 7.24 16.05 6.73L16.05 6.73L16.05 6.73Q16.73 6.22 17.96 6.03L17.96 6.03L19.85 5.74L19.85 5.71L19.85 5.71Q19.85 4.98 19.58 4.65L19.58 4.65L19.58 4.65Q19.31 4.31 18.62 4.31L18.62 4.31L18.62 4.31Q17.39 4.31 17.39 5.53L17.39 5.53L15.65 5.53L15.65 5.40L15.65 5.40Q15.65 4.33 16.35 3.61L16.35 3.61L16.35 3.61Q17.04 2.90 18.66 2.90L18.66 2.90L18.66 2.90Q20.31 2.90 20.99 3.61L20.99 3.61L20.99 3.61Q21.67 4.33 21.67 5.71L21.67 5.71L21.67 8.40L21.78 10.50ZM18.24 9.18L18.24 9.18L18.24 9.18Q19.28 9.18 19.85 8.41L19.85 8.41L19.85 6.85L18.30 7.10L18.30 7.10Q17.19 7.28 17.19 8.16L17.19 8.16L17.19 8.27L17.19 8.27Q17.19 8.65 17.46 8.92L17.46 8.92L17.46 8.92Q17.72 9.18 18.24 9.18ZM26.88 2.90L26.88 2.90L26.88 2.90Q26.92 2.90 27.00 2.91L27.00 2.91L27.00 2.91Q27.08 2.91 27.09 2.91L27.09 2.91L27.09 4.68L26.78 4.68L26.78 4.68Q25.58 4.68 25.06 5.46L25.06 5.46L25.06 10.50L23.24 10.50L23.24 5.18L23.11 3.08L24.72 3.08L24.88 3.98L24.88 3.98Q25.62 2.90 26.88 2.90ZM34.73 5.42L34.73 10.50L32.93 10.50L32.93 5.71L32.93 5.71Q32.93 5.15 32.63 4.82L32.63 4.82L32.63 4.82Q32.34 4.48 31.75 4.48L31.75 4.48L31.75 4.48Q30.73 4.48 30.21 5.33L30.21 5.33L30.21 10.50L28.39 10.50L28.39 5.18L28.27 3.08L29.88 3.08L30.04 4.06L30.04 4.06Q30.84 2.90 32.45 2.90L32.45 2.90L32.45 2.90Q33.60 2.90 34.17 3.61L34.17 3.61L34.17 3.61Q34.73 4.33 34.73 5.42L34.73 5.42ZM46.16 10.56L43.72 10.56L41.93 1.71L40.12 10.56L37.70 10.56L35.83-0.42L37.79-0.42L39.03 8.04L40.74-0.42L43.11-0.42L44.83 8.04L46.07-0.42L48.03-0.42L46.16 10.56ZM51.06 10.50L49.24 10.50L49.24 3.08L51.06 3.08L51.06 10.50ZM49.15-0.18L51.14-0.18L51.14 1.79L49.15 1.79L49.15-0.18ZM55.17 0.98L55.17 3.08L57.23 3.08L57.23 4.68L55.17 4.68L55.17 7.88L55.17 7.88Q55.17 8.58 55.47 8.83L55.47 8.83L55.47 8.83Q55.76 9.09 56.38 9.09L56.38 9.09L56.38 9.09Q56.90 9.09 57.09 8.99L57.09 8.99L57.09 10.50L57.09 10.50Q56.73 10.68 55.94 10.68L55.94 10.68L55.94 10.68Q53.35 10.68 53.35 8.08L53.35 8.08L53.35 4.68L52.22 4.68L52.22 3.08L53.35 3.08L53.35 0.98L55.17 0.98ZM58.60-0.70L60.42-0.70L60.42 3.84L60.42 3.84Q61.22 2.90 62.66 2.90L62.66 2.90L62.66 2.90Q63.81 2.90 64.38 3.61L64.38 3.61L64.38 3.61Q64.95 4.33 64.95 5.42L64.95 5.42L64.95 10.50L63.14 10.50L63.14 5.71L63.14 5.71Q63.14 5.15 62.85 4.82L62.85 4.82L62.85 4.82Q62.55 4.48 61.96 4.48L61.96 4.48L61.96 4.48Q60.94 4.48 60.42 5.33L60.42 5.33L60.42 10.50L58.60 10.50L58.60-0.70ZM74.83 5.10L74.89 2.84L72.55 10.50L70.67 10.50L68.35 2.84L68.40 5.10L68.40 10.50L66.53 10.50L66.53-0.42L69.29-0.42L71.61 7.25L73.95-0.42L76.71-0.42L76.71 10.50L74.83 10.50L74.83 5.10ZM84.78 6.61L84.78 7.46L79.88 7.46L79.88 7.46Q79.98 9.27 81.55 9.27L81.55 9.27L81.55 9.27Q82.25 9.27 82.66 8.93L82.66 8.93L82.66 8.93Q83.06 8.58 83.06 8.12L83.06 8.12L84.78 8.12L84.78 8.18L84.78 8.18Q84.78 9.23 83.92 9.95L83.92 9.95L83.92 9.95Q83.06 10.68 81.54 10.68L81.54 10.68L81.54 10.68Q79.81 10.68 78.94 9.66L78.94 9.66L78.94 9.66Q78.06 8.64 78.06 6.97L78.06 6.97L78.06 6.61L78.06 6.61Q78.06 4.94 78.93 3.92L78.93 3.92L78.93 3.92Q79.80 2.90 81.47 2.90L81.47 2.90L81.47 2.90Q83.10 2.90 83.94 3.92L83.94 3.92L83.94 3.92Q84.78 4.94 84.78 6.61L84.78 6.61ZM81.42 4.31L81.42 4.31L81.42 4.31Q80.00 4.31 79.88 6.12L79.88 6.12L82.95 6.12L82.95 6.12Q82.87 4.31 81.42 4.31Z"></path></g><defs data-v-fde0c5aa=""><!----></defs><g data-v-fde0c5aa="" id="76930d10-098d-40ee-bc66-46280d6599a8" stroke="none" fill="#245760" transform="matrix(0.5074840637140052,0,0,0.5074840637140052,40,134.13989661750986)"><path d="M50.29 0l50.28 20.75-50.28 20.76L0 20.75zM24.85 35.08v19.19c3 1.9 6.53 4.47 12 6.23a40.8 40.8 0 0 0 13.26 2 39.72 39.72 0 0 0 15.14-3 34.54 34.54 0 0 0 9.6-5.76V35.08l-24.67 10zm-12-9l-4-1.48v20.32h4V26.09zm2.64 31.84H6.78a24.84 24.84 0 0 1-.71-6.37 31.55 31.55 0 0 1 .71-6.63h8.71a26.74 26.74 0 0 1 .9 6.25 20.51 20.51 0 0 1-.9 6.75zm-2.64 4h-4v-4h4v4z"></path></g><!----></svg>